<mxfile host="app.diagrams.net" modified="2022-11-01T15:01:28.047Z" agent="5.0 (X11; Linux x86_64) AppleWebKit/537.36 (KHTML, like Gecko) Chrome/107.0.0.0 Safari/537.36" etag="t_sxykj7KnWJvqvqmYvV" version="20.5.1" type="github">
  <diagram id="_rw7BVzgtMRfoOQJeGk8" name="Страница 1">
    <mxGraphModel dx="1102" dy="595" grid="1" gridSize="10" guides="1" tooltips="1" connect="1" arrows="1" fold="1" page="1" pageScale="1" pageWidth="827" pageHeight="1169" math="0" shadow="0">
      <root>
        <mxCell id="0" />
        <mxCell id="1" parent="0" />
        <mxCell id="Q0aAHqa4jOG0ZcH6xqJe-5" style="edgeStyle=orthogonalEdgeStyle;rounded=0;orthogonalLoop=1;jettySize=auto;html=1;entryX=0;entryY=0.75;entryDx=0;entryDy=0;" edge="1" parent="1" source="Q0aAHqa4jOG0ZcH6xqJe-1" target="Q0aAHqa4jOG0ZcH6xqJe-4">
          <mxGeometry relative="1" as="geometry" />
        </mxCell>
        <mxCell id="Q0aAHqa4jOG0ZcH6xqJe-1" value="" style="rounded=1;whiteSpace=wrap;html=1;" vertex="1" parent="1">
          <mxGeometry x="30" y="20" width="140" height="140" as="geometry" />
        </mxCell>
        <mxCell id="Q0aAHqa4jOG0ZcH6xqJe-2" value="" style="rounded=1;whiteSpace=wrap;html=1;" vertex="1" parent="1">
          <mxGeometry x="610" y="40" width="120" height="60" as="geometry" />
        </mxCell>
        <mxCell id="Q0aAHqa4jOG0ZcH6xqJe-7" style="edgeStyle=orthogonalEdgeStyle;rounded=0;orthogonalLoop=1;jettySize=auto;html=1;entryX=0;entryY=0.5;entryDx=0;entryDy=0;" edge="1" parent="1" source="Q0aAHqa4jOG0ZcH6xqJe-3" target="Q0aAHqa4jOG0ZcH6xqJe-2">
          <mxGeometry relative="1" as="geometry" />
        </mxCell>
        <mxCell id="Q0aAHqa4jOG0ZcH6xqJe-3" value="" style="rounded=1;whiteSpace=wrap;html=1;" vertex="1" parent="1">
          <mxGeometry x="450" y="140" width="120" height="60" as="geometry" />
        </mxCell>
        <mxCell id="Q0aAHqa4jOG0ZcH6xqJe-6" style="edgeStyle=orthogonalEdgeStyle;rounded=0;orthogonalLoop=1;jettySize=auto;html=1;entryX=0;entryY=0.75;entryDx=0;entryDy=0;" edge="1" parent="1" source="Q0aAHqa4jOG0ZcH6xqJe-4" target="Q0aAHqa4jOG0ZcH6xqJe-3">
          <mxGeometry relative="1" as="geometry" />
        </mxCell>
        <mxCell id="Q0aAHqa4jOG0ZcH6xqJe-4" value="" style="rounded=1;whiteSpace=wrap;html=1;" vertex="1" parent="1">
          <mxGeometry x="240" y="20" width="120" height="60" as="geometry" />
        </mxCell>
      </root>
    </mxGraphModel>
  </diagram>
</mxfile>
